<svg width="35" height="34" viewBox="0 0 35 34" fill="none" xmlns="http://www.w3.org/2000/svg">
<path opacity="0.1" fill-rule="evenodd" clip-rule="evenodd" d="M0.666992 17C0.666992 7.61116 8.27815 0 17.667 0C27.0558 0 34.667 7.61116 34.667 17C34.667 26.3888 27.0558 34 17.667 34C8.27815 34 0.666992 26.3888 0.666992 17Z" fill="white"/>
<path fill-rule="evenodd" clip-rule="evenodd" d="M10.667 10.8923C10.667 10.5673 10.7961 10.2557 11.0259 10.0259C11.2557 9.79609 11.5673 9.66699 11.8923 9.66699H24.107C24.268 9.66673 24.4276 9.69824 24.5764 9.7597C24.7253 9.82117 24.8605 9.9114 24.9745 10.0252C25.0884 10.139 25.1788 10.2742 25.2404 10.423C25.3021 10.5718 25.3337 10.7313 25.3337 10.8923V23.107C25.3338 23.2681 25.3022 23.4276 25.2407 23.5765C25.1792 23.7253 25.0889 23.8606 24.975 23.9745C24.8611 24.0885 24.7259 24.1788 24.5771 24.2405C24.4283 24.3021 24.2687 24.3337 24.1077 24.3337H11.8923C11.7314 24.3337 11.572 24.3019 11.4233 24.2403C11.2745 24.1787 11.1394 24.0884 11.0256 23.9745C10.9119 23.8607 10.8216 23.7255 10.7601 23.5768C10.6985 23.428 10.6669 23.2686 10.667 23.1077V10.8923ZM16.4723 15.259H18.4583V16.2563C18.745 15.683 19.4783 15.167 20.5803 15.167C22.693 15.167 23.1937 16.309 23.1937 18.4043V22.2857H21.0557V18.8817C21.0557 17.6883 20.769 17.015 20.041 17.015C19.031 17.015 18.611 17.741 18.611 18.8817V22.2857H16.4723V15.259ZM12.8057 22.1943H14.9443V15.167H12.8057V22.1937V22.1943ZM15.2503 12.875C15.2544 13.0581 15.2218 13.2402 15.1545 13.4105C15.0872 13.5809 14.9866 13.7361 14.8585 13.867C14.7304 13.9979 14.5775 14.102 14.4086 14.173C14.2398 14.244 14.0585 14.2806 13.8753 14.2806C13.6922 14.2806 13.5109 14.244 13.342 14.173C13.1732 14.102 13.0203 13.9979 12.8922 13.867C12.7641 13.7361 12.6635 13.5809 12.5962 13.4105C12.5289 13.2402 12.4963 13.0581 12.5003 12.875C12.5082 12.5156 12.6566 12.1735 12.9136 11.9221C13.1706 11.6707 13.5158 11.5299 13.8753 11.5299C14.2348 11.5299 14.5801 11.6707 14.8371 11.9221C15.0941 12.1735 15.2424 12.5156 15.2503 12.875Z" fill="url(#paint0_linear)"/>
<defs>
<linearGradient id="paint0_linear" x1="10.5406" y1="9.10289" x2="26.8737" y2="9.57274" gradientUnits="userSpaceOnUse">
<stop stop-color="#F15E3D"/>
<stop offset="1" stop-color="#F59121"/>
</linearGradient>
</defs>
</svg>
